<svg xmlns="http://www.w3.org/2000/svg" height="36.413" width="69.324"><path d="M13.382 7.314L13.227 4.2l5.057 1.168.7-3.424 4.902 2.023 1.323-2.957 4.357 1.479L32.445 0l2.8 2.568L38.902.156 41.16 3.19 45.594.778l1.556 3.657 4.98-2.412-.546 3.423 5.68-1.478-1.011 3.423 5.913-.933-1.79 2.567 5.758 1.012-3.268 2.023 4.746 1.556-3.501 1.4 5.213 1.634-4.746 1.556 4.668 2.49-4.98.7 4.046 2.49-6.224.156L65.2 26.92l-5.524-.389.467 3.735-4.435-1.09-.155 3.035-4.591-1.09-.934 2.724-4.746-1.478-1.556 3.19-4.28-1.945-2.178 2.8-3.112-2.645-3.812 2.49-2.179-3.268-4.901 2.957-1.09-3.424-5.602 2.023.778-3.579-5.524 1.868 1.245-3.813-5.524 1.167L9.57 26.92l-6.224-.155 2.8-2.568-5.368-.933 3.968-1.79L0 19.762l4.902-1.867-4.357-1.4 5.135-1.167-4.124-2.568h5.369L4.59 9.18l5.525.546-1.556-3.58z" fill="#d10000"/></svg>