<svg xmlns="http://www.w3.org/2000/svg" xmlns:xlink="http://www.w3.org/1999/xlink" width="50" height="49.025"><defs><linearGradient x2="1" id="b" gradientUnits="userSpaceOnUse" gradientTransform="matrix(448.34326 0 0 -448.34326 31.847 256.018)"><stop offset="0" stop-color="#de5732"/><stop offset="1" stop-color="#d43500"/></linearGradient><linearGradient x2="1" id="a" gradientUnits="userSpaceOnUse" gradientTransform="scale(-584.8379 584.8379) rotate(60 -.312 -.573)"><stop offset="0" stop-opacity=".251"/><stop offset=".5" stop-opacity="0"/><stop offset="1" stop-opacity="0"/></linearGradient><linearGradient x2="1" id="d" xlink:href="#a" gradientUnits="userSpaceOnUse" gradientTransform="scale(54.35178 -54.35178) rotate(60 .906 -.24)"/><filter id="c" color-interpolation-filters="sRGB"><feGaussianBlur stdDeviation="8.91"/></filter></defs><path d="M53.231 21.375c-6.616-.708-12.753 1.177-17.244 3.783-4.469 2.594-11.794 8.023-13.21 15.576-1.429 7.564-1.658 17.962 2.593 44.876 4.251 26.923 16.525 82.175 41.083 130.802 24.558 48.626 67.308 109.579 128.687 155.132 61.401 45.572 113.111 63.015 129.615 68.495 16.566 5.418 59.015 15.358 74.393 17.692 15.336 2.334 38.99 3.313 46.303 3.042 7.293-.229 16.732-6.126 17.483-7.272.71-1.231 3.73-11.586 5.147-15.859 1.46-4.229 1.896-4.709 1.896-10.836v-59.722c0-21.755.48-28.799 0-30.466-.437-1.687-4-8.065-7.584-13.003-3.522-4.981-3.252-5.418-13.92-6.606-10.608-1.188-28.528-3.292-45.054-6.377-16.566-3.041-32.362-9.918-44.177-13.44-11.794-3.563-12.732-1.896-18.4 3.042-5.688 4.98-26.694 25.757-51.49 50.304-25.258-13.003-48.159-30.446-71.549-50.304-23.372-19.838-40.375-41.78-52.649-57.128-12.285-15.358-24.558-36.853-24.558-36.853s42.031-43.208 49.116-53.596c7.075-10.378 4.011-17.713-2.356-34.456-6.386-16.775-11.814-44.876-13.46-55.023-1.657-10.149-1.657-20.547-2.605-25.747-.948-5.199-7.085-12.982-8.96-14.399-1.897-1.427-1.668-1.657-4.97-1.657 0 0-30.456-.155-54.774-.155-24.329 0-42.74.864-49.356.155" transform="matrix(-.09293 0 0 .09293 47.864 2.113)" opacity=".3" filter="url(#c)"/><path d="M33.24 3.821c-.308 0-.286.021-.462.154-.175.132-.745.855-.833 1.338-.088.483-.088 1.45-.242 2.393-.153.943-.658 3.554-1.251 5.113-.592 1.556-.877 2.238-.22 3.203.66.965 4.565 4.98 4.565 4.98s-1.14 1.998-2.282 3.426c-1.14 1.426-2.72 3.465-4.893 5.309-2.174 1.845-4.302 3.466-6.65 4.675-2.304-2.282-4.256-4.213-4.784-4.675-.527-.46-.614-.614-1.71-.283-1.098.327-2.566.966-4.106 1.249-1.536.287-3.201.482-4.187.593-.992.11-.966.15-1.294.614-.333.458-.664 1.051-.705 1.208-.044.155 0 .81 0 2.831v5.55c0 .57.041.615.177 1.008.131.397.412 1.36.478 1.473.07.107.947.655 1.625.676.68.025 2.878-.065 4.303-.282 1.43-.217 5.374-1.141 6.914-1.645 1.533-.509 6.339-2.13 12.045-6.365 5.705-4.234 9.678-9.898 11.96-14.417 2.282-4.52 3.423-9.654 3.818-12.156.395-2.502.374-3.468.24-4.17-.13-.703-.811-1.207-1.227-1.449a2.672 2.672 0 0 0-1.602-.351c-.615.066-2.326-.015-4.587-.015-2.26 0-5.09.015-5.09.015" fill="#0976a5"/><path d="M42.917 4.1a2.67 2.67 0 0 1 1.602.351c.416.241 1.096.746 1.228 1.448.133.703.154 1.67-.241 4.17-.395 2.503-1.536 7.637-3.818 12.157-2.282 4.519-6.255 10.183-11.96 14.417-5.706 4.235-10.512 5.856-12.045 6.365-1.54.504-5.485 1.428-6.914 1.644-1.425.217-3.624.308-4.303.283-.678-.021-1.555-.57-1.625-.676-.066-.114-.347-1.076-.478-1.474-.136-.393-.177-.437-.177-1.007v-5.55c0-2.022-.044-2.676 0-2.831.041-.157.372-.75.705-1.209.328-.463.303-.503 1.294-.614.986-.11 2.651-.305 4.187-.592 1.54-.283 3.008-.922 4.106-1.25 1.096-.33 1.183-.175 1.71.283.528.463 2.48 2.394 4.785 4.675 2.347-1.208 4.475-2.829 6.65-4.675 2.171-1.843 3.751-3.882 4.892-5.309 1.142-1.427 2.282-3.425 2.282-3.425s-3.906-4.015-4.564-4.98c-.658-.965-.373-1.647.219-3.203.593-1.559 1.098-4.17 1.25-5.113.155-.943.155-1.91.243-2.393.088-.483.658-1.207.833-1.338.176-.133.155-.154.461-.154 0 0 2.83-.015 5.09-.015 2.262 0 3.973.08 4.588.015" fill="#105a8f"/><path d="M10.769 44.652c-1.425.217-3.624.308-4.303.283-.678-.021-1.555-.57-1.625-.676-.066-.114-.347-1.076-.478-1.474l-.079-.225c3.016-.07 13.152.775 27.359-11.478C41.783 22.335 42.75 6.631 42.917 4.1c.19-.004-.117.012 0 0a2.671 2.671 0 0 1 1.602.351c.416.241 1.096.746 1.228 1.448.133.703.154 1.67-.241 4.17-.395 2.503-1.536 7.637-3.818 12.157-2.282 4.519-6.255 10.183-11.96 14.417-5.706 4.235-10.512 5.856-12.045 6.365-1.54.504-5.485 1.428-6.914 1.644" opacity=".7" fill="url(#d)"/></svg>