<svg xmlns="http://www.w3.org/2000/svg" version="1" width="732" height="225" viewBox="0 0 88.049 26.996" id="svg2"><defs id="defs4"><style id="style6"/></defs><g id="g5088"><path id="polygon10" fill="#004686" d="M31.018 26.608L35.475.454h7.13l-4.46 26.154h-7.127z"/><path d="M63.999 1.098C62.586.568 60.373 0 57.609 0c-7.043 0-12.005 3.547-12.047 8.63-.04 3.759 3.542 5.855 6.246 7.106 2.775 1.281 3.708 2.1 3.694 3.244-.017 1.753-2.215 2.554-4.264 2.554-2.854 0-4.37-.396-6.71-1.372l-.92-.417-1 5.855c1.666.73 4.744 1.363 7.941 1.396 7.494 0 12.358-3.507 12.413-8.935.027-2.976-1.872-5.24-5.984-7.106-2.492-1.21-4.018-2.017-4.002-3.242 0-1.088 1.292-2.25 4.082-2.25 2.332-.037 4.02.472 5.336 1.002l.639.301.966-5.668z" id="path12" fill="#004686"/><path d="M82.279.478H76.77c-1.706 0-2.983.467-3.733 2.17L62.45 26.616h7.486s1.224-3.223 1.5-3.93c.82 0 8.09.011 9.13.011.214.916.868 3.92.868 3.92l6.615-.001L82.279.478m-8.79 16.858c.589-1.507 2.84-7.31 2.84-7.31-.042.069.584-1.515.945-2.496l.482 2.254 1.65 7.553h-5.918z" id="path14" fill="#004686"/><path d="M25.04.473l-6.98 17.835-.743-3.624c-1.3-4.179-5.348-8.705-9.873-10.971l6.381 22.872 7.543-.009L32.59.473H25.04z" id="path16" fill="#004686"/><path d="M11.586.457H.091L0 1.001c8.943 2.165 14.86 7.397 17.317 13.683l-2.5-12.019C14.386 1.01 13.134.515 11.586.457z" id="path18" fill="#ef9b11"/></g></svg>