<svg xmlns="http://www.w3.org/2000/svg" width="264" height="68.939"><g fill="#0761af" fill-rule="evenodd"><path d="M34.47 0a34.21 34.21 0 0 1 15.102 3.497c.717.34 1.433.715 2.149 1.126l-3.172 2.841-4.768-4.93-8.047 7.178-4.78-5.217-14.988 13.513 9.61 10.588-3.776 3.321 9.465 10.609-3.754 3.312 13.525 15.055 8.028-7.392 6.94 7.92a36.903 36.903 0 0 1-4.54 3.018 34.213 34.213 0 0 1-16.994 4.5C15.484 68.94 0 53.455 0 34.47 0 15.484 15.484 0 34.47 0"/><path d="M28.187 32.29l8.197-7.38 7.381 8.197-8.197 7.38-7.38-8.196M34.018 46.455l8.196-7.38 7.38 8.196-8.196 7.382-7.38-8.198M22.321 18.293l8.197-7.38 7.38 8.196-8.196 7.382-7.38-8.198M37.364 14.321l6.147-5.534 5.535 6.148-6.147 5.534-5.535-6.148M48.287 39.673l6.148-5.534 5.535 6.148-6.147 5.535-5.536-6.149M53.693 52.09l6.149-5.535 5.535 6.147-6.148 5.536-5.536-6.148M56.172 23.63l4.098-3.689 3.69 4.099-4.098 3.69-3.69-4.1M50.934 11.455l4.098-3.691 3.69 4.099-4.097 3.69-3.69-4.098M61.41 35.808l4.098-3.69 3.69 4.099-4.097 3.69-3.691-4.1M43.031 26.683l6.147-5.535 5.535 6.148-6.147 5.535-5.535-6.148M163.89 21.23l-.193.127-.192-.128c-1.413-1.285-2.956-1.8-4.882-1.8-4.434 0-7.326 3.086-7.326 7.904v22.553h4.434V27.333c0-3.213 2.184-3.47 2.892-3.47.513 0 1.285.128 1.926.642.644.643.964 1.543.964 2.828v22.553h4.435V27.333c0-3.213 2.185-3.47 2.89-3.47.514 0 1.286.128 1.929.642.642.643.964 1.543.964 2.828v22.553h4.432V27.333c0-2.505-.77-4.562-2.184-5.976-1.286-1.221-3.084-1.928-5.14-1.928-1.992 0-3.598.579-4.948 1.8M196.212 29.839c-1.477-1.542-3.92-2.891-7.261-2.891-3.214 0-5.655 1.35-7.134 2.89-2.312 2.507-2.762 6.041-2.762 8.803 0 2.7.45 6.235 2.762 8.74 1.479 1.541 3.92 2.89 7.134 2.89 3.341 0 5.784-1.349 7.261-2.89 2.313-2.505 2.761-6.04 2.761-8.74 0-2.762-.448-6.296-2.761-8.802zm-1.736 9.767c0 2.12 0 4.498-1.607 6.233-.642.642-1.862 1.478-3.918 1.478-1.928 0-3.148-.836-3.792-1.478-1.607-1.735-1.607-4.113-1.607-6.233v-1.992c0-2.12 0-4.498 1.607-6.169.644-.705 1.864-1.542 3.792-1.542 2.056 0 3.276.837 3.918 1.542 1.607 1.671 1.607 4.05 1.607 6.169v1.992M202.636 27.333l3.728.064v1.992c1.092-.77 2.055-1.349 3.15-1.734 1.347-.579 2.311-.707 3.66-.707 1.929 0 3.92.385 5.526 2.185 1.543 1.799 1.864 3.919 1.864 5.719v14.97h-4.113V34.529c0-3.661-2.311-4.626-4.24-4.626-1.928 0-3.919.837-5.526 2.313v17.606h-4.049V27.333M240.676 45.454c-.772.385-1.607.705-2.635 1.027-1.221.387-2.184.578-3.47.578-2.119 0-4.047-.705-5.076-1.863-.771-.77-1.606-2.313-1.606-5.012v-.578h13.879v-1.027c0-3.6-.128-6.555-2.377-8.934-1.478-1.605-3.727-2.697-6.555-2.697-3.148 0-5.461 1.35-6.873 2.955-2.315 2.636-2.572 6.104-2.572 8.353 0 2.506.386 6.234 2.7 8.803 1.477 1.735 4.112 3.212 7.838 3.212 1.671 0 3.471-.192 5.268-.899.964-.385 2.056-.9 2.764-1.285zm-12.787-9.316c0-2.573.835-4.05 1.48-4.757.64-.706 1.668-1.478 3.403-1.478 1.157 0 2.313.257 3.15 1.093 1.478 1.413 1.478 3.148 1.478 4.691v.963h-9.51v-.512M264 27.397l-8.803 26.473c-.321 1.158-1.156 3.085-2.121 4.176-1.156 1.287-2.697 1.865-4.433 1.865-1.222 0-2.376-.258-3.534-.9-.705-.45-1.414-.9-1.864-1.414l1.928-2.443c.322.323.771.645 1.158.9.642.387 1.414.58 2.12.58 1.221 0 1.992-.643 2.377-1.157.45-.578.899-1.927 1.221-2.763l.515-1.8-9.445-23.517h4.432l5.653 14.072c.58 1.348 1.157 3.407 1.287 3.985h.192c.706-2.7 1.029-3.6 1.608-5.27l4.046-12.787H264M91.09 48.537l.129-.193.192.193c1.478 1.221 2.956 1.8 4.948 1.8 4.433 0 7.325-3.15 7.325-7.904V19.879h-4.498v22.554c0 3.212-2.184 3.406-2.827 3.406-.578 0-1.35-.065-1.928-.643-.642-.578-.963-1.542-.963-2.763V19.879h-4.499v22.554c0 3.212-2.184 3.406-2.89 3.406-.514 0-1.286-.065-1.864-.643-.644-.578-.963-1.542-.963-2.763V19.879h-4.499v22.554c0 2.443.771 4.497 2.185 5.911 1.285 1.285 3.148 1.993 5.14 1.993 1.992 0 3.599-.643 5.012-1.8M124.31 45.454c-.706.32-1.542.705-2.57 1.027-1.22.387-2.185.578-3.47.578-2.12 0-4.049-.705-5.077-1.863-.706-.77-1.541-2.313-1.541-5.012v-.578h13.75v-1.027c0-3.6-.128-6.555-2.313-8.934-1.478-1.541-3.727-2.633-6.62-2.633-3.018 0-5.331 1.35-6.745 2.89-2.377 2.7-2.57 6.169-2.57 8.354 0 2.506.321 6.234 2.635 8.803 1.542 1.672 4.112 3.212 7.839 3.212 1.67 0 3.404-.256 5.268-.963.964-.321 1.992-.9 2.7-1.286zm-12.658-9.316c0-2.573.77-3.985 1.478-4.757.578-.641 1.606-1.478 3.34-1.478 1.158 0 2.314.321 3.15 1.157 1.477 1.35 1.477 3.084 1.477 4.69v.9h-9.445v-.512M144.485 29.261c-1.606-1.414-3.854-2.249-6.168-2.249-1.028 0-2.12.192-2.892.321-.641.192-1.477.514-2.184.771v-8.803h-4.048v28.593c2.378 1.414 5.206 2.377 8.418 2.377 2.376 0 5.592-.513 7.902-3.533 1.864-2.507 2.25-5.654 2.25-8.224 0-2.443-.192-6.62-3.278-9.253zm-6.94.642c1.607 0 3.279.514 4.307 1.608 1.413 1.541 1.413 3.854 1.413 5.846v1.927c0 3.792-.642 5.334-1.221 6.17-.643.836-1.99 1.863-4.304 1.863-.836 0-1.865-.258-2.636-.45-.577-.194-1.284-.577-1.863-.9V31.252"/></g></svg>