<?xml version="1.0" encoding="UTF-8" standalone="no"?>
<svg
   xmlns:dc="http://purl.org/dc/elements/1.1/"
   xmlns:cc="http://creativecommons.org/ns#"
   xmlns:rdf="http://www.w3.org/1999/02/22-rdf-syntax-ns#"
   xmlns:svg="http://www.w3.org/2000/svg"
   xmlns="http://www.w3.org/2000/svg"
   viewBox="0 0 36.683899 36.796043"
   height="36.796043"
   width="36.683899"
   id="svg922"
   version="1.1">
  <metadata
     id="metadata928">
    <rdf:RDF>
      <cc:Work
         rdf:about="">
        <dc:format>image/svg+xml</dc:format>
        <dc:type
           rdf:resource="http://purl.org/dc/dcmitype/StillImage" />
        <dc:title></dc:title>
      </cc:Work>
    </rdf:RDF>
  </metadata>
  <defs
     id="defs926" />
  <g
     transform="translate(-0.26336622,-0.26336598)"
     style="display:inline"
     id="layer1">
    <g
       style="fill:#105a8f;fill-opacity:1"
       id="g1144">
      <path
         style="fill:#105a8f;fill-opacity:1;stroke:none;stroke-width:1.00157475;stroke-linecap:butt;stroke-linejoin:miter;stroke-miterlimit:4;stroke-dasharray:none;stroke-opacity:1"
         d="M 4.1386719,3.2363281 3.3867188,4.9667969 5.9453125,6.7714844 10.535156,25.132812 34.539062,24.755859 36.947266,9.1054688 7.375,5.3417969 Z M 27.765625,9.6699219 a 1.6930693,1.6930693 0 0 1 1.693359,1.6933591 1.6930693,1.6930693 0 0 1 -1.693359,1.691407 1.6930693,1.6930693 0 0 1 -1.691406,-1.691407 1.6930693,1.6930693 0 0 1 1.691406,-1.6933591 z m 4.816406,0.074219 A 1.6930693,1.6930693 0 0 1 34.275391,11.4375 1.6930693,1.6930693 0 0 1 32.582031,13.130859 1.6930693,1.6930693 0 0 1 30.888672,11.4375 1.6930693,1.6930693 0 0 1 32.582031,9.7441409 Z M 13.808594,9.78125 a 1.6930693,1.6930693 0 0 1 1.693359,1.693359 1.6930693,1.6930693 0 0 1 -1.693359,1.69336 1.6930693,1.6930693 0 0 1 -1.69336,-1.69336 1.6930693,1.6930693 0 0 1 1.69336,-1.693359 z m 4.626953,0.039063 a 1.6930693,1.6930693 0 0 1 1.693359,1.69336 1.6930693,1.6930693 0 0 1 -1.693359,1.691406 1.6930693,1.6930693 0 0 1 -1.693359,-1.691406 1.6930693,1.6930693 0 0 1 1.693359,-1.69336 z m 4.740234,0 a 1.6930693,1.6930693 0 0 1 1.69336,1.69336 1.6930693,1.6930693 0 0 1 -1.69336,1.691406 1.6930693,1.6930693 0 0 1 -1.693359,-1.691406 1.6930693,1.6930693 0 0 1 1.693359,-1.69336 z m 7.054688,4.363282 a 1.6930693,1.6930693 0 0 1 1.693359,1.693359 1.6930693,1.6930693 0 0 1 -1.693359,1.693359 1.6930693,1.6930693 0 0 1 -1.69336,-1.693359 1.6930693,1.6930693 0 0 1 1.69336,-1.693359 z m -13.958985,0.113281 a 1.6930693,1.6930693 0 0 1 1.69336,1.693359 1.6930693,1.6930693 0 0 1 -1.69336,1.69336 1.6930693,1.6930693 0 0 1 -1.691406,-1.69336 1.6930693,1.6930693 0 0 1 1.691406,-1.693359 z m 4.628907,0.03711 a 1.6930693,1.6930693 0 0 1 1.693359,1.69336 1.6930693,1.6930693 0 0 1 -1.693359,1.693359 1.6930693,1.6930693 0 0 1 -1.69336,-1.693359 1.6930693,1.6930693 0 0 1 1.69336,-1.69336 z m 4.740234,0 a 1.6930693,1.6930693 0 0 1 1.693359,1.69336 1.6930693,1.6930693 0 0 1 -1.693359,1.693359 1.6930693,1.6930693 0 0 1 -1.693359,-1.693359 1.6930693,1.6930693 0 0 1 1.693359,-1.69336 z m -7.128906,4.742188 a 1.6930693,1.6930693 0 0 1 1.691406,1.691406 1.6930693,1.6930693 0 0 1 -1.691406,1.69336 1.6930693,1.6930693 0 0 1 -1.69336,-1.69336 1.6930693,1.6930693 0 0 1 1.69336,-1.691406 z m 4.740234,0 a 1.6930693,1.6930693 0 0 1 1.693359,1.691406 1.6930693,1.6930693 0 0 1 -1.693359,1.69336 1.6930693,1.6930693 0 0 1 -1.693359,-1.69336 1.6930693,1.6930693 0 0 1 1.693359,-1.691406 z m 4.890625,0.07422 a 1.6930693,1.6930693 0 0 1 1.69336,1.693359 1.6930693,1.6930693 0 0 1 -1.69336,1.693359 1.6930693,1.6930693 0 0 1 -1.693359,-1.693359 1.6930693,1.6930693 0 0 1 1.693359,-1.693359 z"
         id="path1031" />
      <ellipse
         style="fill:#105a8f;fill-opacity:1;stroke:none;stroke-width:0.22997583;stroke-miterlimit:4;stroke-dasharray:none"
         id="path934-626"
         cx="10.685149"
         cy="33.221775"
         rx="3.950495"
         ry="3.8376238" />
      <path
         style="fill:#105a8f;fill-opacity:1;stroke:none;stroke-width:1px;stroke-linecap:butt;stroke-linejoin:miter;stroke-opacity:1"
         d="m 13.168317,23.70297 -2.257426,6.320792 1.730693,0.752476 2.407921,-6.69703 z"
         id="path1037" />
      <circle
         style="fill:#105a8f;fill-opacity:1;stroke:none;stroke-width:0.15777777;stroke-miterlimit:4;stroke-dasharray:none"
         id="path934-60"
         cx="2.9346533"
         cy="2.934653"
         r="2.6712871" />
      <circle
         style="fill:#105a8f;fill-opacity:1;stroke:none;stroke-width:0.22666667;stroke-miterlimit:4;stroke-dasharray:none"
         id="path934-18"
         cx="30.663366"
         cy="33.221786"
         r="3.8376238" />
      <path
         style="fill:#105a8f;fill-opacity:1;stroke:none;stroke-width:1px;stroke-linecap:butt;stroke-linejoin:miter;stroke-opacity:1"
         d="m 13.619802,33.409901 h 14.221782 l -0.60198,1.279208 H 13.469307 Z"
         id="path1046" />
    </g>
  </g>
</svg>
