<svg xmlns="http://www.w3.org/2000/svg" height="36.796" width="36.684"><g fill="#105a8f" transform="translate(-.263 -.263)"><path d="M4.139 3.236l-.752 1.73 2.558 1.805 4.59 18.362 24.004-.377 2.408-15.65L7.375 5.341zM27.766 9.67a1.693 1.693 0 0 1 1.693 1.693 1.693 1.693 0 0 1-1.693 1.692 1.693 1.693 0 0 1-1.692-1.692 1.693 1.693 0 0 1 1.692-1.693zm4.816.074a1.693 1.693 0 0 1 1.693 1.694 1.693 1.693 0 0 1-1.693 1.693 1.693 1.693 0 0 1-1.693-1.694 1.693 1.693 0 0 1 1.693-1.693zm-18.773.037a1.693 1.693 0 0 1 1.693 1.694 1.693 1.693 0 0 1-1.693 1.693 1.693 1.693 0 0 1-1.694-1.693A1.693 1.693 0 0 1 13.81 9.78zm4.627.04a1.693 1.693 0 0 1 1.693 1.693 1.693 1.693 0 0 1-1.693 1.691 1.693 1.693 0 0 1-1.694-1.691 1.693 1.693 0 0 1 1.694-1.694zm4.74 0a1.693 1.693 0 0 1 1.693 1.693 1.693 1.693 0 0 1-1.693 1.691 1.693 1.693 0 0 1-1.694-1.691 1.693 1.693 0 0 1 1.694-1.694zm7.054 4.363a1.693 1.693 0 0 1 1.694 1.693 1.693 1.693 0 0 1-1.694 1.693 1.693 1.693 0 0 1-1.693-1.693 1.693 1.693 0 0 1 1.693-1.693zm-13.959.113a1.693 1.693 0 0 1 1.694 1.693 1.693 1.693 0 0 1-1.694 1.694 1.693 1.693 0 0 1-1.69-1.694 1.693 1.693 0 0 1 1.69-1.693zm4.63.037a1.693 1.693 0 0 1 1.693 1.693 1.693 1.693 0 0 1-1.694 1.694 1.693 1.693 0 0 1-1.693-1.694 1.693 1.693 0 0 1 1.693-1.693zm4.74 0a1.693 1.693 0 0 1 1.693 1.693 1.693 1.693 0 0 1-1.693 1.694 1.693 1.693 0 0 1-1.694-1.694 1.693 1.693 0 0 1 1.694-1.693zm-7.13 4.742a1.693 1.693 0 0 1 1.692 1.692 1.693 1.693 0 0 1-1.691 1.693 1.693 1.693 0 0 1-1.694-1.693 1.693 1.693 0 0 1 1.694-1.692zm4.741 0a1.693 1.693 0 0 1 1.693 1.692 1.693 1.693 0 0 1-1.693 1.693 1.693 1.693 0 0 1-1.693-1.693 1.693 1.693 0 0 1 1.693-1.692zm4.89.074a1.693 1.693 0 0 1 1.694 1.694 1.693 1.693 0 0 1-1.693 1.693 1.693 1.693 0 0 1-1.694-1.693 1.693 1.693 0 0 1 1.694-1.694z"/><ellipse cx="10.685" cy="33.222" rx="3.95" ry="3.838"/><path d="M13.168 23.703l-2.257 6.32 1.73.753 2.409-6.697z"/><circle cx="2.935" cy="2.935" r="2.671"/><circle cx="30.663" cy="33.222" r="3.838"/><path d="M13.62 33.41h14.222l-.602 1.28H13.47z"/></g></svg>